<?xml version="1.0" encoding="utf-8"?>
<!-- Generator: Adobe Illustrator 24.2.3, SVG Export Plug-In . SVG Version: 6.00 Build 0)  -->
<svg version="1.1" id="Layer_1" xmlns="http://www.w3.org/2000/svg" xmlns:xlink="http://www.w3.org/1999/xlink" x="0px" y="0px"
	 viewBox="0 0 29.3 29.3" style="enable-background:new 0 0 29.3 29.3;" xml:space="preserve">
<style type="text/css">
	.st0{fill:url(#SVGID_1_);}
	.st1{fill:url(#SVGID_2_);}
	.st2{fill:url(#SVGID_3_);}
</style>
<g id="_x31_40b7385-be57-4e82-a092-f6708c2329f9" transform="matrix(0.9052185056629445,0,0,0.9052185056629445,40,135.5165039093929)">
	
		<linearGradient id="SVGID_1_" gradientUnits="userSpaceOnUse" x1="-816.2894" y1="-188.8029" x2="-815.2894" y2="-188.8029" gradientTransform="matrix(8.2412 3.8429 -3.8429 8.2412 5972.4175 4561.354)">
		<stop  offset="0" style="stop-color:#000A68"/>
		<stop  offset="1" style="stop-color:#00C4EE"/>
	</linearGradient>
	<path class="st0" d="M-28-133.2l0.7-0.7l10.4,10.4l-0.7,0.7L-28-133.2z"/>
	
		<linearGradient id="SVGID_2_" gradientUnits="userSpaceOnUse" x1="-858.3432" y1="-186.1678" x2="-857.3432" y2="-186.1678" gradientTransform="matrix(16.1823 7.5463 -7.5459 16.183 12443.8184 9350.5752)">
		<stop  offset="0" style="stop-color:#000A68"/>
		<stop  offset="1" style="stop-color:#00C4EE"/>
	</linearGradient>
	<path class="st1" d="M-39.1-123.1l21.1-21.1l0.7,0.7l-21.1,21.1L-39.1-123.1z"/>
	
		<linearGradient id="SVGID_3_" gradientUnits="userSpaceOnUse" x1="-872.2675" y1="-185.2952" x2="-871.2675" y2="-185.2952" gradientTransform="matrix(23.7647 11.0817 -11.0817 23.7647 18628.5 13927.1465)">
		<stop  offset="0" style="stop-color:#000A68"/>
		<stop  offset="1" style="stop-color:#00C4EE"/>
	</linearGradient>
	<path class="st2" d="M-13-148.5v4.2h-4.2v-4.2H-13 M-12-149.5h-6.2v6.2h6.2V-149.5z M-13-122.7v4.2h-4.2v-4.2H-13 M-12-123.7h-6.2
		v6.2h6.2V-123.7z M-38.8-122.7v4.2H-43v-4.2H-38.8 M-37.8-123.7H-44v6.2h6.2V-123.7z"/>
</g>
</svg>
