<?xml version="1.0" encoding="utf-8"?>
<!-- Generator: Adobe Illustrator 24.2.3, SVG Export Plug-In . SVG Version: 6.00 Build 0)  -->
<svg version="1.1" id="Layer_1" xmlns="http://www.w3.org/2000/svg" xmlns:xlink="http://www.w3.org/1999/xlink" x="0px" y="0px"
	 viewBox="0 0 220.4 29.5" style="enable-background:new 0 0 220.4 29.5;" xml:space="preserve">
<style type="text/css">
	.st0{fill:url(#SVGID_1_);}
	.st1{fill:url(#SVGID_2_);}
	.st2{fill:url(#SVGID_3_);}
</style>
<g id="_x37_6b7ce3f-6078-4827-977c-617b62df54b8" transform="matrix(1.4294099033044796,0,0,1.4294099033044796,80.18022980208363,140.05845395467438)">
	<path d="M-19.6-84l-0.7-2.6c-0.4-1.5-0.8-2-1.7-2.3c1.3-0.3,2-1.1,2-2.4c0-1.2-0.4-1.9-1.3-2.2c-0.6-0.3-1.3-0.3-2.3-0.3h-3v9.9
		h1.1v-4.7h1.6c0.6,0,1.1,0,1.5,0.3c0.4,0.3,0.8,0.9,1,1.8l0.6,2.5H-19.6z M-25.4-89.3v-3.9h1.9c0.7,0,1.2,0.1,1.6,0.2
		c0.6,0.3,0.8,0.9,0.8,1.7c0,0.8-0.3,1.4-0.7,1.7c-0.5,0.2-1.1,0.3-1.9,0.3H-25.4z M-12.6-87.5v-0.3c0-0.8-0.1-1.5-0.3-2.1
		c-0.4-0.8-1-1.4-2.4-1.4c-1.9,0-3,1.3-3,3.7c0,2.6,1.1,3.7,3.2,3.7c1.1,0,1.8-0.3,2.3-0.5v-0.7c-0.6,0.3-1.2,0.6-2.2,0.6
		c-1.4,0-2.2-1-2.3-3C-17.3-87.5-12.6-87.5-12.6-87.5z M-13.8-88.1h-3.5c0.1-1.9,1-2.5,1.9-2.5C-14-90.6-13.8-89.6-13.8-88.1z
		 M-9.9-84v-10.4H-11V-84C-11-84-9.9-84-9.9-84z M-6.4-84v-7h-1.1v7.1L-6.4-84L-6.4-84z M-6.3-93.2c0-0.5-0.2-0.7-0.6-0.7
		c-0.5,0-0.7,0.2-0.7,0.7c0,0.6,0.2,0.7,0.6,0.7C-6.5-92.5-6.3-92.7-6.3-93.2z M0-84h1c-0.2-0.5-0.2-1.1-0.2-1.6v-3.2
		c0-1-0.2-1.5-0.6-1.8c-0.4-0.4-1.1-0.5-1.8-0.5c-0.7,0-1.6,0.2-2.3,0.5v0.8c0.9-0.5,1.6-0.6,2.2-0.6c0.5,0,0.9,0.1,1.2,0.5
		c0.2,0.3,0.3,0.8,0.3,1.3v0.6c-0.3,0-0.6,0-0.9,0c-2.5,0-3.5,0.8-3.5,2.1c0,1.3,0.8,2.2,2.3,2.2c1.1,0,1.8-0.5,2.1-1.2
		C-0.2-84.7-0.1-84.2,0-84z M-0.2-87.5v1c0,0.5-0.1,0.9-0.3,1.2c-0.4,0.4-0.9,0.8-1.6,0.8c-0.9,0-1.4-0.6-1.4-1.5
		c0-0.8,0.6-1.5,2.6-1.5C-0.7-87.5-0.4-87.5-0.2-87.5z M4-84c0-0.3,0.1-0.7,0.1-0.8c0.6,0.7,1.4,0.9,2.2,0.9c1.8,0,2.9-1.2,2.9-3.8
		c0-2.3-1-3.5-2.7-3.5c-0.9,0-1.8,0.5-2.3,1.2v-4.4h-1v8.5c0,0.6,0,1.4,0,1.9C3.2-84,4-84,4-84z M4.2-87.4c0-1,0.1-1.6,0.3-2.1
		c0.4-0.7,1.1-1,1.7-1c1.2,0,1.9,0.8,1.9,2.8c0,2.2-0.7,3.2-2,3.2c-0.7,0-1.3-0.3-1.6-0.9C4.2-85.7,4.2-86.4,4.2-87.4z M12.1-84
		v-10.4H11V-84C11-84,12.1-84,12.1-84z M19.7-87.5v-0.3c0-0.8-0.1-1.5-0.3-2.1c-0.4-0.8-1-1.4-2.4-1.4c-1.9,0-3,1.3-3,3.7
		c0,2.6,1.1,3.7,3.2,3.7c1.1,0,1.8-0.3,2.3-0.5v-0.7c-0.6,0.3-1.2,0.6-2.1,0.6c-1.4,0-2.2-1-2.3-3C15.1-87.5,19.7-87.5,19.7-87.5z
		 M18.6-88.1h-3.5c0.1-1.9,1-2.5,1.9-2.5C18.4-90.6,18.6-89.6,18.6-88.1z M31.2-93.8h-7.4v0.7h3.1v9.2H28v-9.3h3.2V-93.8z
		 M37.2-87.5v-0.3c0-0.8-0.1-1.5-0.3-2.1c-0.4-0.8-1-1.4-2.4-1.4c-1.9,0-3,1.3-3,3.7c0,2.6,1.1,3.7,3.2,3.7c1.1,0,1.8-0.3,2.3-0.5
		v-0.7c-0.6,0.3-1.2,0.6-2.2,0.6c-1.5,0-2.2-1-2.3-3C32.5-87.5,37.2-87.5,37.2-87.5z M36.1-88.1h-3.5c0.1-1.9,1-2.5,1.9-2.5
		C35.8-90.6,36.1-89.6,36.1-88.1z M43.4-84.2V-85c-0.5,0.3-1.1,0.5-1.7,0.5c-1.3,0-2.2-0.9-2.2-3c0-2,0.8-3,2.2-3
		c0.6,0,1.2,0.1,1.7,0.4V-91c-0.5-0.1-1-0.2-1.7-0.2c-2.1,0-3.3,1.3-3.3,3.8s1.2,3.6,3.1,3.6C42.4-83.8,43-84,43.4-84.2z M49.4-84h1
		v-4.1c0-0.8,0-1.2-0.1-1.6c-0.2-1.1-0.9-1.5-2-1.5c-0.7,0-1.7,0.2-2.4,1v-4.2h-1.1V-84h1.1v-4.4c0-0.8,0-1.1,0.3-1.4
		c0.4-0.5,1.1-0.7,1.7-0.7c0.7,0,1.1,0.3,1.3,0.8c0.1,0.3,0.1,0.9,0.1,1.7L49.4-84L49.4-84z M61.7-93.2v-0.6h-5.6v9.9h5.8v-0.8h-4.7
		v-4.1h4.3v-0.7h-4.3v-3.7H61.7z M68.5-84L66-87.7l2.4-3.3h-1.1c-1.1,1.8-1.4,2.2-1.7,2.7c-0.3-0.5-0.5-0.8-1.7-2.7h-1.3l2.3,3.5
		L62.4-84h1.1c1.2-1.8,1.5-2.4,1.8-2.8c0.3,0.5,0.5,0.8,1.8,2.8H68.5z M71-90.2c0-0.2-0.1-0.6-0.1-0.8h-1c0.1,0.5,0.1,1.1,0.1,1.6
		v8.5h1v-3.6c0.5,0.4,1.1,0.6,1.9,0.6c1.3,0,2.9-0.7,2.9-3.8c0-2.4-1-3.6-2.7-3.6C72.2-91.2,71.5-90.8,71-90.2z M71-87.4
		c0-1.9,0.1-2.2,0.6-2.7c0.3-0.2,0.7-0.5,1.3-0.5c1.1,0,1.8,0.9,1.8,3c0,2.2-0.8,3.1-1.9,3.1c-0.6,0-1.1-0.1-1.5-0.5
		C71-85.3,71-85.9,71-87.4z M82.9-87.5v-0.3c0-0.8-0.1-1.5-0.3-2.1c-0.4-0.8-1-1.4-2.4-1.4c-1.9,0-3,1.3-3,3.7
		c0,2.6,1.1,3.7,3.2,3.7c1.1,0,1.8-0.3,2.3-0.5v-0.7c-0.6,0.3-1.2,0.6-2.2,0.6c-1.4,0-2.2-1-2.3-3C78.2-87.5,82.9-87.5,82.9-87.5z
		 M81.8-88.1h-3.5c0.1-1.9,1-2.5,1.9-2.5C81.5-90.6,81.8-89.6,81.8-88.1z M85.7-84v-4.2c0-0.6,0.1-1.1,0.4-1.5
		c0.3-0.4,0.7-0.6,1.2-0.6c0.3,0,0.6,0,0.9,0.2v-1c-0.2-0.1-0.5-0.1-0.8-0.1c-0.6,0-1.4,0.4-1.8,1.2c0-0.2,0-0.7-0.1-1h-1
		c0.1,0.7,0.1,1.5,0.1,2.1v4.9H85.7z M92.9-84v-0.7c-0.2,0.1-0.6,0.1-0.9,0.1c-0.4,0-0.7-0.1-0.8-0.4c-0.1-0.2-0.1-0.5-0.1-1.1v-4.3
		h1.6V-91h-1.6v-1.8h-0.9c-0.1,1-0.1,1.8-0.1,1.8H89v0.6h1.1v4.3c0,0.7,0,1.1,0.2,1.5c0.3,0.5,0.7,0.7,1.5,0.7
		C92.1-83.9,92.6-83.9,92.9-84z M93.4-85.1v0.9c0.6,0.2,1.3,0.4,1.9,0.4c1.7,0,2.6-0.8,2.6-2.1c0-1-0.5-1.5-1.7-2l-0.7-0.3
		c-0.6-0.3-0.9-0.6-0.9-1.1c0-0.8,0.6-1.2,1.4-1.2c0.6,0,1.1,0.1,1.7,0.4V-91c-0.5-0.2-1-0.2-1.7-0.2c-1.5,0-2.4,0.8-2.4,2
		c0,0.9,0.4,1.5,1.4,1.9l0.6,0.3c0.8,0.3,1.2,0.7,1.2,1.3c0,0.8-0.4,1.2-1.6,1.2C94.7-84.5,94.1-84.7,93.4-85.1z"/>
</g>
<g id="_x31_40b7385-be57-4e82-a092-f6708c2329f9" transform="matrix(0.9052185056629445,0,0,0.9052185056629445,40,135.5165039093929)">
	
		<linearGradient id="SVGID_1_" gradientUnits="userSpaceOnUse" x1="-816.1356" y1="-188.6463" x2="-815.1356" y2="-188.6463" gradientTransform="matrix(8.2412 3.8429 -3.8429 8.2412 5971.9053 4559.6294)">
		<stop  offset="0" style="stop-color:#000A68"/>
		<stop  offset="1" style="stop-color:#00C4EE"/>
	</linearGradient>
	<path class="st0" d="M-27.9-133.1l0.7-0.7l10.4,10.4l-0.7,0.7L-27.9-133.1z"/>
	
		<linearGradient id="SVGID_2_" gradientUnits="userSpaceOnUse" x1="-858.1894" y1="-186.0112" x2="-857.1894" y2="-186.0112" gradientTransform="matrix(16.1823 7.5463 -7.5459 16.183 12442.665 9347.0371)">
		<stop  offset="0" style="stop-color:#000A68"/>
		<stop  offset="1" style="stop-color:#00C4EE"/>
	</linearGradient>
	<path class="st1" d="M-39-123l21.1-21.1l0.7,0.7l-21.1,21.1L-39-123z"/>
	
		<linearGradient id="SVGID_3_" gradientUnits="userSpaceOnUse" x1="-872.1137" y1="-185.1386" x2="-871.1137" y2="-185.1386" gradientTransform="matrix(23.7647 11.0817 -11.0817 23.7647 18626.7344 13921.8779)">
		<stop  offset="0" style="stop-color:#000A68"/>
		<stop  offset="1" style="stop-color:#00C4EE"/>
	</linearGradient>
	<path class="st2" d="M-12.9-148.4v4.2h-4.2v-4.2H-12.9 M-11.9-149.4h-6.2v6.2h6.2V-149.4z M-12.9-122.6v4.2h-4.2v-4.2H-12.9
		 M-11.9-123.6h-6.2v6.2h6.2V-123.6z M-38.7-122.6v4.2h-4.2v-4.2H-38.7 M-37.7-123.6h-6.2v6.2h6.2V-123.6z"/>
</g>
</svg>
